<svg xmlns="http://www.w3.org/2000/svg" viewBox="0 0 64 64" width="64" height="64" role="img" aria-label="彩票号码分析助手">
  <defs>
    <linearGradient id="bg" x1="0" y1="0" x2="0" y2="1">
      <stop offset="0" stop-color="#24324f"/>
      <stop offset="1" stop-color="#141c2c"/>
    </linearGradient>
  </defs>
  <rect width="64" height="64" rx="14" fill="url(#bg)"/>
  <g fill="#ffffff" fill-opacity=".16">
    <rect x="6" y="6" width="10" height="10" rx="3"/>
    <rect x="20" y="6" width="10" height="10" rx="3"/>
    <rect x="34" y="6" width="10" height="10" rx="3"/>
    <rect x="48" y="6" width="10" height="10" rx="3"/>
    <rect x="6" y="20" width="10" height="10" rx="3"/>
    <rect x="20" y="20" width="10" height="10" rx="3"/>
    <rect x="34" y="20" width="10" height="10" rx="3"/>
    <rect x="48" y="20" width="10" height="10" rx="3"/>
    <rect x="6" y="34" width="10" height="10" rx="3"/>
    <rect x="20" y="34" width="10" height="10" rx="3"/>
    <rect x="34" y="34" width="10" height="10" rx="3"/>
    <rect x="48" y="34" width="10" height="10" rx="3"/>
    <rect x="6" y="48" width="10" height="10" rx="3"/>
    <rect x="20" y="48" width="10" height="10" rx="3"/>
    <rect x="34" y="48" width="10" height="10" rx="3"/>
    <rect x="48" y="48" width="10" height="10" rx="3"/>
  </g>
  <g>
    <rect x="6" y="34" width="10" height="10" rx="3" fill="#e2574c"/>
    <rect x="20" y="20" width="10" height="10" rx="3" fill="#f0b429"/>
    <rect x="34" y="34" width="10" height="10" rx="3" fill="#3b82c4"/>
    <rect x="48" y="20" width="10" height="10" rx="3" fill="#e2574c"/>
  </g>
  <path d="M6 48 L20 41 L34 46 L48 30 L58 24" fill="none" stroke="#7cbcf0" stroke-width="3" stroke-linecap="round" stroke-linejoin="round" stroke-opacity=".9"/>
</svg>
